HIERARCHY
ROOT Pelvis
{
	OFFSET 0.000000 0.000000 0.000000
	CHANNELS 6 Xposition Yposition Zposition Xrotation Yrotation Zrotation
	JOINT LeftUpLeg_virtual
	{
		OFFSET 0.000000 0.000000 0.000000
		CHANNELS 3 Xrotation Yrotation Zrotation
		JOINT LeftUpLeg
		{
			OFFSET 18.735201 -5.666702 -4.541200
			CHANNELS 3 Xrotation Yrotation Zrotation
			JOINT LeftLeg
			{
				OFFSET -0.021200 -31.938179 0.493100
				CHANNELS 3 Xrotation Yrotation Zrotation
				JOINT LeftFoot
				{
					OFFSET 0.021200 -31.938179 -4.336299
					CHANNELS 3 Xrotation Yrotation Zrotation
					JOINT LeftToeBase
					{
						OFFSET 0.943001 -26.722000 15.023500
						CHANNELS 3 Xrotation Yrotation Zrotation
						End Site
						{
							OFFSET 0 0 0
						}
					}
				}
			}
		}
	}
	JOINT RightUpLeg_virtual
	{
		OFFSET 0.000000 0.000000 0.000000
		CHANNELS 3 Xrotation Yrotation Zrotation
		JOINT RightUpLeg
		{
			OFFSET -18.735201 -5.666702 -4.541200
			CHANNELS 3 Xrotation Yrotation Zrotation
			JOINT RightLeg
			{
				OFFSET 0.018946 -31.938133 0.493100
				CHANNELS 3 Xrotation Yrotation Zrotation
				JOINT RightFoot
				{
					OFFSET -0.018946 -31.938126 -4.336299
					CHANNELS 3 Xrotation Yrotation Zrotation
					JOINT RightToeBase
					{
						OFFSET -0.943001 -26.722004 15.023500
						CHANNELS 3 Xrotation Yrotation Zrotation
						End Site
						{
							OFFSET 0 0 0
						}
					}
				}
			}
		}
	}
	JOINT Hips_virtual
	{
		OFFSET 0.000000 0.000000 0.000000
		CHANNELS 3 Xrotation Yrotation Zrotation
		JOINT Hips
		{
			OFFSET -0.000000 -0.000000 -0.000000
			CHANNELS 3 Xrotation Yrotation Zrotation
			JOINT Spine
			{
				OFFSET 0.000000 10.199997 -0.299500
				CHANNELS 3 Xrotation Yrotation Zrotation
				JOINT Spine1
				{
					OFFSET 0.000000 11.900002 -1.516600
					CHANNELS 3 Xrotation Yrotation Zrotation
					JOINT Spine2
					{
						OFFSET 0.000000 13.600006 -2.842500
						CHANNELS 3 Xrotation Yrotation Zrotation
						JOINT Neck_virtual
						{
							OFFSET 0.000000 0.000000 0.000000
							CHANNELS 3 Xrotation Yrotation Zrotation
							JOINT Neck
							{
								OFFSET 0.000000 9.624100 -2.890100
								CHANNELS 3 Xrotation Yrotation Zrotation
								JOINT Head
								{
									OFFSET 0.000000 14.068802 -1.351900
									CHANNELS 3 Xrotation Yrotation Zrotation
									End Site
									{
										OFFSET 0 0 0
									}
								}
							}
						}
						JOINT LeftShoulder_virtual
						{
							OFFSET 0.000000 0.000000 0.000000
							CHANNELS 3 Xrotation Yrotation Zrotation
							JOINT LeftShoulder
							{
								OFFSET 15.263000 10.923401 -0.547700
								CHANNELS 3 Xrotation Yrotation Zrotation
								JOINT LeftArm
								{
									OFFSET 25.438599 -2.830597 -13.032500
									CHANNELS 3 Xrotation Yrotation Zrotation
									JOINT LeftForeArm
									{
										OFFSET 29.960503 0.000000 0.000000
										CHANNELS 3 Xrotation Yrotation Zrotation
										JOINT LeftHand
										{
											OFFSET 27.849251 0.000000 0.000000
											CHANNELS 3 Xrotation Yrotation Zrotation
											End Site
											{
												OFFSET 0 0 0
											}
										}
									}
								}
							}
						}
						JOINT RightShoulder_virtual
						{
							OFFSET 0.000000 0.000000 0.000000
							CHANNELS 3 Xrotation Yrotation Zrotation
							JOINT RightShoulder
							{
								OFFSET -15.263000 10.923401 -0.547700
								CHANNELS 3 Xrotation Yrotation Zrotation
								JOINT RightArm
								{
									OFFSET -25.438599 -2.830597 -13.032500
									CHANNELS 3 Xrotation Yrotation Zrotation
									JOINT RightForeArm
									{
										OFFSET -29.960503 0.000000 0.000000
										CHANNELS 3 Xrotation Yrotation Zrotation
										JOINT RightHand
										{
											OFFSET -27.849251 0.000000 0.000000
											CHANNELS 3 Xrotation Yrotation Zrotation
											End Site
											{
												OFFSET 0 0 0
											}
										}
									}
								}
							}
						}
					}
				}
			}
		}
	}
}
MOTION
Frames: 13
Frame Time: 0.03333333
-2.454236 92.276649 11.381134 0.000000 0.000000 0.000000 -4.412035 -34.826349 -1.985556 -8.181282 11.585695 2.177101 22.474145 5.262207 -2.377358 -4.930071 19.226496 -9.262076 0.000000 0.000000 0.000000 -4.683816 -33.800209 -2.024423 -17.066915 0.706256 -16.764360 24.853998 -0.213715 5.152246 -6.460015 -1.305181 4.679514 0.000000 0.000000 0.000000 -4.399611 -33.974099 -1.802017 -0.781731 -0.061407 -0.086882 4.647074 0.888599 -2.661334 2.450395 0.028460 -0.276404 0.000000 0.000000 0.000000 0.795680 1.645318 -1.396566 1.653510 -0.650353 1.192398 0.000000 0.000000 0.000000 1.333303 1.411625 -1.695629 -0.940480 -11.607143 -7.856951 0.279419 -11.290584 -47.079224 -7.149414 -19.447712 -12.672368 0.000000 0.000000 0.000000 -1.097735 1.897000 -0.793667 8.337495 5.323055 10.986423 -1.089188 -2.773212 52.805685 3.858347 23.660561 18.315253 0.000000 0.000000 0.000000 
-2.150279 92.288925 11.591469 0.000000 0.000000 0.000000 -4.559044 -35.659994 -2.260563 -8.206611 12.028297 2.227677 22.700275 5.198950 -2.523910 -4.798611 20.013595 -9.233121 0.000000 0.000000 0.000000 -4.833357 -34.634284 -2.307017 -17.162684 0.835809 -16.666831 24.716897 -0.171732 5.173632 -6.775999 -1.553342 4.711972 0.000000 0.000000 0.000000 -4.573097 -34.807067 -2.109066 -0.780051 -0.061294 -0.092220 4.644947 0.441298 -2.582041 2.459398 -0.245251 -0.344186 0.000000 0.000000 0.000000 0.635730 1.490260 -1.445354 1.557132 -0.675090 1.149318 0.000000 0.000000 0.000000 1.382468 1.212103 -1.735983 -1.089050 -11.872329 -7.854479 0.324252 -12.264966 -47.231202 -7.056938 -20.310882 -12.703898 0.000000 0.000000 0.000000 -1.189157 1.734681 -0.875619 8.631253 4.526204 11.427959 -1.680839 -1.699416 53.264363 4.277338 24.119030 18.423047 0.000000 0.000000 0.000000 
-1.858874 92.274078 11.815113 0.000000 0.000000 0.000000 -4.644741 -36.457067 -2.523967 -8.310073 12.492979 2.384531 22.932522 5.100845 -2.675737 -4.692986 20.768645 -9.297941 0.000000 0.000000 0.000000 -4.937061 -35.426149 -2.576332 -17.181339 0.963521 -16.518246 24.465666 -0.172342 5.187154 -6.975853 -1.786368 4.701765 0.000000 0.000000 0.000000 -4.683912 -35.589257 -2.396122 -0.778757 -0.059003 -0.094958 4.652854 -0.017037 -2.554568 2.465564 -0.502700 -0.405033 0.000000 0.000000 0.000000 0.488328 1.343190 -1.485790 1.430742 -0.721727 1.117977 0.000000 0.000000 0.000000 1.432056 1.020283 -1.767651 -1.242561 -12.170373 -7.822913 0.520423 -13.353255 -47.316774 -6.969246 -21.540246 -12.792780 0.000000 0.000000 0.000000 -1.246431 1.579965 -0.946281 8.906875 3.687179 11.982639 -2.289460 -0.587326 53.668409 4.707866 24.694971 18.437478 0.000000 0.000000 0.000000 
-1.588979 92.243820 12.048939 0.000000 0.000000 0.000000 -4.657463 -37.220945 -2.758090 -8.487178 12.963257 2.641772 23.148199 4.962698 -2.831882 -4.613540 21.455581 -9.472980 0.000000 0.000000 0.000000 -4.971798 -36.164431 -2.811193 -17.088042 1.078733 -16.332741 24.037560 -0.256932 5.184166 -7.165478 -2.047748 4.600570 0.000000 0.000000 0.000000 -4.711785 -36.323089 -2.638669 -0.779312 -0.055754 -0.094728 4.654245 -0.477575 -2.623506 2.461308 -0.748062 -0.462043 0.000000 0.000000 0.000000 0.350801 1.198042 -1.518809 1.280993 -0.791299 1.104326 0.000000 0.000000 0.000000 1.473065 0.830566 -1.798151 -1.396840 -12.516850 -7.747633 0.860859 -14.498231 -47.367505 -6.900244 -23.211344 -12.948811 0.000000 0.000000 0.000000 -1.268190 1.430518 -1.007284 9.166417 2.818729 12.613092 -2.856438 0.496656 54.003437 5.157122 25.373552 18.348702 0.000000 0.000000 0.000000 
-1.348545 92.211815 12.282536 0.000000 0.000000 0.000000 -4.587848 -37.930714 -2.954333 -8.731115 13.430484 2.991204 23.308975 4.800981 -2.988478 -4.525382 22.064484 -9.748742 0.000000 0.000000 0.000000 -4.925312 -36.850558 -3.004675 -16.865378 1.184794 -16.110258 23.404599 -0.429591 5.167508 -7.318222 -2.332835 4.471367 0.000000 0.000000 0.000000 -4.650026 -37.005323 -2.830522 -0.781535 -0.052153 -0.092434 4.639814 -0.936851 -2.812462 2.440116 -0.991560 -0.515649 0.000000 0.000000 0.000000 0.217711 1.048659 -1.544758 1.117255 -0.884996 1.113342 0.000000 0.000000 0.000000 1.504491 0.635087 -1.832708 -1.543212 -12.923059 -7.623861 1.326839 -15.644171 -47.413879 -6.853620 -25.261815 -13.166411 0.000000 0.000000 0.000000 -1.265162 1.277506 -1.058375 9.415935 1.949740 13.280768 -3.307698 1.514093 54.297900 5.623146 26.147721 18.144903 0.000000 0.000000 0.000000 
-1.142661 92.197067 12.510658 0.000000 0.000000 0.000000 -4.435902 -38.575966 -3.116513 -9.032057 13.875533 3.416909 23.413088 4.635053 -3.130631 -4.389650 22.601069 -10.093419 0.000000 0.000000 0.000000 -4.794371 -37.477221 -3.164248 -16.545927 1.273089 -15.850922 22.562627 -0.669279 5.144347 -7.288551 -2.604853 4.435750 0.000000 0.000000 0.000000 -4.503434 -37.631685 -2.983300 -0.783693 -0.049699 -0.090865 4.616927 -1.388647 -3.110234 2.401911 -1.239135 -0.560338 0.000000 0.000000 0.000000 0.083594 0.889376 -1.558764 0.948718 -0.998681 1.146934 0.000000 0.000000 0.000000 1.521672 0.430837 -1.872789 -1.672236 -13.378371 -7.463112 1.886694 -16.735166 -47.478974 -6.811610 -27.506271 -13.410621 0.000000 0.000000 0.000000 -1.251938 1.113933 -1.096940 9.657998 1.110855 13.936655 -3.578970 2.430384 54.601878 6.108174 27.029874 17.815703 0.000000 0.000000 0.000000 
-0.972594 92.203110 12.725609 0.000000 0.000000 0.000000 -4.210532 -39.143346 -3.257781 -9.389782 14.262906 3.898733 23.508669 4.469749 -3.235705 -4.234567 23.072085 -10.467515 0.000000 0.000000 0.000000 -4.583327 -38.039308 -3.308564 -16.176559 1.362940 -15.533848 21.557242 -0.942900 5.109877 -6.981203 -2.838802 4.550736 0.000000 0.000000 0.000000 -4.286198 -38.194691 -3.121483 -0.785283 -0.047629 -0.090510 4.597272 -1.819410 -3.488914 2.346978 -1.489053 -0.590743 0.000000 0.000000 0.000000 -0.048873 0.722166 -1.557087 0.787362 -1.128585 1.203737 0.000000 0.000000 0.000000 1.521086 0.223315 -1.913157 -1.771218 -13.858524 -7.276133 2.491516 -17.728613 -47.552658 -6.748696 -29.721421 -13.639206 0.000000 0.000000 0.000000 -1.245429 0.937478 -1.119065 9.894509 0.348990 14.532573 -3.626902 3.241459 54.963769 6.610926 27.986309 17.354870 0.000000 0.000000 0.000000 
-0.835200 92.223106 12.927975 0.000000 0.000000 0.000000 -3.924611 -39.629010 -3.396167 -9.809355 14.584882 4.436109 23.641607 4.300556 -3.300972 -4.129507 23.467289 -10.864258 0.000000 0.000000 0.000000 -4.312174 -38.534712 -3.457627 -15.775404 1.456775 -15.132680 20.444250 -1.254560 5.064925 -6.485397 -3.048527 4.776619 0.000000 0.000000 0.000000 -4.013462 -38.687800 -3.264714 -0.785195 -0.045750 -0.092943 4.595547 -2.214236 -3.920112 2.277004 -1.732477 -0.605656 0.000000 0.000000 0.000000 -0.176218 0.554612 -1.536950 0.643802 -1.267574 1.277298 0.000000 0.000000 0.000000 1.503078 0.021427 -1.947894 -1.833534 -14.341196 -7.074874 3.090442 -18.564855 -47.629262 -6.639497 -31.733858 -13.812872 0.000000 0.000000 0.000000 -1.254575 0.750397 -1.127739 10.120154 -0.291981 15.038234 -3.454264 3.932249 55.385034 7.129983 28.964995 16.764377 0.000000 0.000000 0.000000 
-0.721987 92.247185 13.107033 0.000000 0.000000 0.000000 -3.594599 -40.037029 -3.544273 -10.293922 14.866279 5.033085 23.827487 4.129622 -3.340899 -4.164493 23.770585 -11.289821 0.000000 0.000000 0.000000 -3.994413 -38.956967 -3.618911 -15.361336 1.538923 -14.641812 19.308953 -1.639618 5.008365 -6.051935 -3.286886 5.008767 0.000000 0.000000 0.000000 -3.689791 -39.109223 -3.419635 -0.784867 -0.043726 -0.096966 4.635189 -2.546598 -4.383972 2.200075 -1.953011 -0.610533 0.000000 0.000000 0.000000 -0.290779 0.400172 -1.499785 0.526389 -1.407719 1.357159 0.000000 0.000000 0.000000 1.467954 -0.159068 -1.973846 -1.850141 -14.803136 -6.857845 3.633901 -19.198521 -47.694856 -6.472086 -33.464013 -13.904310 0.000000 0.000000 0.000000 -1.287697 0.567158 -1.128841 10.328574 -0.777339 15.428458 -3.099549 4.504984 55.828460 7.653233 29.865316 16.060894 0.000000 0.000000 0.000000 
-0.621912 92.265770 13.264477 0.000000 0.000000 0.000000 -3.227885 -40.381134 -3.701486 -10.848766 15.138494 5.690386 24.074711 3.960586 -3.374904 -4.374024 23.989658 -11.731279 0.000000 0.000000 0.000000 -3.637360 -39.313053 -3.788723 -14.973679 1.619383 -14.084717 18.279109 -2.104653 4.935462 -5.827767 -3.573797 5.193553 0.000000 0.000000 0.000000 -3.319816 -39.465595 -3.580248 -0.785407 -0.042449 -0.103059 4.733667 -2.792068 -4.877108 2.117998 -2.131156 -0.617207 0.000000 0.000000 0.000000 -0.382421 0.277296 -1.456878 0.440402 -1.542690 1.432025 0.000000 0.000000 0.000000 1.419676 -0.303162 -1.994623 -1.819999 -15.239737 -6.632071 4.072904 -19.621568 -47.745713 -6.243583 -34.910176 -13.904298 0.000000 0.000000 0.000000 -1.337026 0.407223 -1.131371 10.513137 -1.085028 15.703851 -2.606303 4.961434 56.263417 8.162314 30.593947 15.271396 0.000000 0.000000 0.000000 
-0.534355 92.272484 13.405174 0.000000 0.000000 0.000000 -2.836987 -40.694096 -3.864683 -11.460748 15.440761 6.390088 24.366372 3.829687 -3.423644 -4.658635 24.167141 -12.156565 0.000000 0.000000 0.000000 -3.256246 -39.624086 -3.959240 -14.665606 1.700586 -13.503748 17.432443 -2.630785 4.849500 -5.776525 -3.888950 5.329095 0.000000 0.000000 0.000000 -2.918497 -39.779807 -3.736447 -0.786766 -0.041439 -0.110735 4.901968 -2.925583 -5.401223 2.041051 -2.248418 -0.642800 0.000000 0.000000 0.000000 -0.439194 0.198827 -1.426415 0.389063 -1.666449 1.491052 0.000000 0.000000 0.000000 1.374712 -0.395836 -2.022065 -1.738099 -15.646044 -6.395738 4.395456 -19.812594 -47.776193 -5.965328 -36.112419 -13.817780 0.000000 0.000000 0.000000 -1.392776 0.292370 -1.147570 10.668640 -1.218652 15.868237 -2.043781 5.327348 56.677941 8.637520 31.077081 14.434879 0.000000 0.000000 0.000000 
-0.459549 92.264481 13.512718 0.000000 0.000000 0.000000 -2.438612 -40.995513 -4.025514 -12.104797 15.764765 7.089955 24.685690 3.759510 -3.479662 -5.000276 24.347379 -12.502672 0.000000 0.000000 0.000000 -2.864138 -39.918050 -4.120039 -14.459341 1.791580 -12.932922 16.791043 -3.198291 4.754632 -5.828047 -4.205146 5.427466 0.000000 0.000000 0.000000 -2.501158 -40.074595 -3.878435 -0.789233 -0.039589 -0.118460 5.140015 -2.934266 -5.955379 1.975171 -2.294883 -0.701487 0.000000 0.000000 0.000000 -0.456660 0.174967 -1.427552 0.368878 -1.775802 1.527897 0.000000 0.000000 0.000000 1.340623 -0.428937 -2.068357 -1.604515 -16.016164 -6.142677 4.623498 -19.782226 -47.774445 -5.657066 -37.150843 -13.659412 0.000000 0.000000 0.000000 -1.439662 0.237435 -1.187732 10.795155 -1.199396 15.938808 -1.453234 5.626787 57.085550 9.051561 31.299642 13.589100 0.000000 0.000000 0.000000 
-0.401053 92.253479 13.585518 0.000000 0.000000 0.000000 -2.041176 -41.298875 -4.171680 -12.751389 16.025809 7.740104 25.021546 3.716212 -3.513355 -5.438696 24.529603 -12.741453 0.000000 0.000000 0.000000 -2.476137 -40.210905 -4.265972 -14.319622 1.896722 -12.388375 16.273055 -3.784817 4.652831 -5.918627 -4.495336 5.499483 0.000000 0.000000 0.000000 -2.084412 -40.355671 -4.001631 -0.791145 -0.036066 -0.123213 5.431831 -2.822421 -6.529907 1.922047 -2.268196 -0.799476 0.000000 0.000000 0.000000 -0.435688 0.204964 -1.472420 0.376064 -1.868506 1.540329 0.000000 0.000000 0.000000 1.329128 -0.399387 -2.140406 -1.419012 -16.331886 -5.878432 4.800594 -19.508381 -47.728187 -5.339699 -38.083468 -13.449156 0.000000 0.000000 0.000000 -1.464420 0.244217 -1.258739 10.897726 -1.073119 15.915500 -0.892580 5.882018 57.512522 9.391253 31.267684 12.768460 0.000000 0.000000 0.000000 
